<svg class="behance-menu" version="1.1" id="Layer_1" xmlns="http://www.w3.org/2000/svg" xmlns:xlink="http://www.w3.org/1999/xlink" x="0px" y="0px" viewBox="0 0 48 48" style="enable-background:new 0 0 48 48;" xml:space="preserve">
                            <style type="text/css">
                                .st0 {
                                    fill: #33cc66;
                                }
                                
                                .st2 {
                                    fill: #799DCB;
                                }
                            </style>
                            <path class="st0" d="M-195.5,9.3c-13.3,0-24,10.7-24,24c0,13.3,10.7,24,24,24c13.3,0,24-10.7,24-24C-171.5,20-182.2,9.3-195.5,9.3z
	 M-188.5,24.3l-2.5,0c-2,0-2.4,0.9-2.4,2.3v3.1h4.7l-0.6,4.8h-4.1v12.3h-4.9V34.5h-4.1v-4.8h4.1v-3.5c0-4.1,2.5-6.3,6.2-6.3
	c1.7,0,3.3,0.1,3.7,0.2V24.3z" />
                            <g id="zNalIV.tif">
                                <g>
                                    <g>
                                        <path class="st0" d="M-76.2-61.9c-12.7,0-23,10.3-23,23c0,12.7,10.3,23,23,23s23-10.3,23-23C-53.2-51.6-63.5-61.9-76.2-61.9z
				 M-64.4-28.9c0,0.2,0,0.5-0.1,0.7c-0.2,0.4-0.5,0.8-1,0.9c-0.1,0.1-0.3,0-0.4,0.1c-6.8,0-13.7,0-20.5,0c-0.2,0-0.4-0.1-0.6-0.2
				c-0.4-0.3-0.7-0.6-0.8-1c0-0.2,0-0.3,0-0.5c0-6.7,0-13.3,0-20c0-0.2,0-0.5,0.1-0.7c0.2-0.4,0.5-0.7,1-0.9c0.1,0,0.3,0,0.4-0.1
				c6.8,0,13.6,0,20.4,0c0,0,0.1,0,0.1,0c0.5,0,0.8,0.2,1.1,0.5c0.1,0.1,0.2,0.3,0.3,0.4c0.1,0.2,0.1,0.5,0.1,0.7
				C-64.4-42.2-64.4-35.6-64.4-28.9z" />
                                    </g>
                                    <path class="st1" d="M-65.9-50.6C-65.9-50.6-65.9-50.6-65.9-50.6c0,0-0.1,0-0.1,0C-66-50.6-66-50.6-65.9-50.6z" />
                                    <path class="st0" d="M-78.8-36.2c0-1.8,0-3.6,0-5.4c0-0.1,0-0.2,0.1-0.2c1,0,2,0,3,0c0.1,0,0.1,0,0.1,0.1c0,0.4,0,0.9,0,1.3
			c0,0,0,0.1,0,0.1c0,0,0.1,0,0.1-0.1c0.3-0.5,0.7-0.9,1.3-1.2c0.6-0.3,1.2-0.5,1.9-0.5c0.6,0,1.3,0.1,1.9,0.3
			c0.9,0.3,1.6,1,1.9,1.9c0.3,0.6,0.4,1.3,0.4,1.9c0,0.6,0,1.1,0,1.7c0,1.9,0,3.7,0,5.6c0,0.1,0,0.1-0.1,0.1c-1.1,0-2.1,0-3.2,0
			c-0.1,0-0.1,0-0.1-0.1c0-1.9,0-3.7,0-5.6c0-0.5,0-0.9-0.1-1.4c-0.1-0.4-0.3-0.7-0.6-1c-0.2-0.2-0.5-0.3-0.8-0.3
			c-0.4,0-0.7,0-1.1,0.1c-0.5,0.2-0.8,0.6-1,1.1c-0.2,0.5-0.2,1-0.2,1.6c0,1.8,0,3.6,0,5.5c0,0.1,0,0.1-0.1,0.1c-1.1,0-2.1,0-3.2,0
			c-0.1,0-0.1,0-0.1-0.1C-78.8-32.6-78.8-34.4-78.8-36.2z" />
                                    <path class="st0" d="M-84.4-36.2c0-1.8,0-3.6,0-5.5c0-0.1,0-0.1,0.1-0.1c1.1,0,2.1,0,3.2,0c0.1,0,0.1,0,0.1,0.1
			c0,3.6,0,7.3,0,10.9c0,0.1,0,0.1-0.1,0.1c-1.1,0-2.1,0-3.2,0c-0.1,0-0.1,0-0.1-0.1C-84.4-32.6-84.4-34.4-84.4-36.2z" />
                                    <path class="st0" d="M-82.7-47.4c1.1,0,2,0.9,2,2c0,1.1-0.9,2-2,2c-1.1,0-2-0.9-2-2C-84.7-46.5-83.8-47.4-82.7-47.4z" />
                                </g>
                            </g>
                            <g>
                                <path class="st0" d="M-140.8,10c-13.3,0-24,10.7-24,24c0,13.3,10.7,24,24,24c13.3,0,24-10.7,24-24C-116.8,20.8-127.6,10-140.8,10z
		 M-127.7,44.3c-0.1,1.4-1.6,2.8-3.1,2.9c-6.7,0-13.3,0-20,0c-1.2-0.1-2.1-0.7-2.7-1.7c-0.3-0.5-0.4-1-0.4-1.6c0-6.6,0-13.2,0-19.7
		c0.1-0.6,0.2-1.2,0.5-1.7c0.6-0.9,1.4-1.4,2.5-1.5c6.8,0,13.6,0,20.4,0c1.4,0.1,2.8,1.5,2.9,2.9C-127.7,30.6-127.7,37.5-127.7,44.3
		z" />
                                <path class="st0" d="M-131,31.9c-0.7,0-1.3,0-2,0c0.1,0.6,0.3,1.1,0.2,1.7c0,0.6,0,1.1-0.1,1.7c-0.3,2.1-1.3,3.7-2.9,5
		c-1.9,1.5-4,2-6.3,1.6c-2.1-0.3-3.8-1.4-5.1-3.1c-1.5-2-1.9-4.3-1.4-6.7c0.1-0.3-0.1-0.3-0.3-0.3c-0.5,0-1.1,0-1.6,0
		c-0.3,0-0.4,0.1-0.4,0.4c0,3.6,0,7.3,0,10.9c0,0.6,0.3,1,1,1c1.6,0,3.3,0,4.9,0c4.5,0,9,0,13.5,0c0.6,0,0.9-0.2,0.9-0.7
		c0-3.8,0-7.5,0-11.3C-130.7,31.9-130.8,31.9-131,31.9z" />
                                <path class="st0" d="M-140.8,39.1c2.7,0,5.1-2.2,5-5.1c0-2.8-2.3-4.9-4.7-5c-3.1-0.1-5.4,2.3-5.3,5
		C-145.8,36.8-143.7,39-140.8,39.1z" />
                                <path class="st0" d="M-134.8,28.9c1.1,0,2.2,0,3.4,0c0.5,0,0.8-0.3,0.8-0.8c0-0.6,0-1.2,0-1.8c0-0.5,0-1.1,0-1.6
		c0-0.6-0.2-0.8-0.8-0.8c-1.1,0-2.2,0-3.3,0c-0.5,0-0.9,0.4-0.9,0.9c0,1.1,0,2.2,0,3.3C-135.7,28.5-135.3,28.9-134.8,28.9z" />
                            </g>
                            <g>
                                <path class="st0" d="M24,0.9c-12.7,0-23,10.3-23,23c0,12.7,10.3,23,23,23c12.7,0,23-10.3,23-23C47,11.2,36.7,0.9,24,0.9z
		 M28.3,16.3c1,0,2.1,0,3.1,0c1,0,2.1,0,3.1,0c0.2,0,0.2,0.1,0.2,0.2c0,0.4,0,0.8,0,1.3c0,0.1,0,0.2-0.2,0.2c-2.1,0-4.2,0-6.3,0
		c-0.1,0-0.2,0-0.2-0.2c0-0.4,0-0.9,0-1.3C28.1,16.3,28.1,16.3,28.3,16.3z M23.5,29.8c-0.5,0.8-1.2,1.5-2.2,1.8
		c-1.1,0.4-2.2,0.5-3.3,0.5c-2.4,0-4.7,0-7.1,0c-0.1,0-0.2,0-0.3,0c0-5.5,0-11,0-16.6c0.1,0,0.2,0,0.3,0c2.5,0,5.1,0,7.6,0
		c0.9,0,1.8,0.1,2.7,0.5c1.1,0.4,1.9,1.2,2.2,2.3c0.3,0.9,0.3,1.8,0.1,2.7c-0.2,0.9-0.7,1.6-1.6,2.1c-0.1,0.1-0.2,0.1-0.3,0.2
		c0.2,0.2,0.5,0.2,0.7,0.3c1.1,0.7,1.7,1.7,1.8,2.9C24.4,27.7,24.1,28.8,23.5,29.8z M37.3,25.2c0,0.1,0,0.3,0,0.4c0,0.1,0,0.2,0,0.3
		s0,0.2,0,0.3c0,0.1,0,0.3,0,0.4c-0.1,0-0.2,0-0.3,0c-2.7,0-5.4,0-8.1,0c-0.1,0-0.2-0.1-0.2,0.1c0,0.5,0.1,1,0.4,1.4
		c0.4,0.8,1.1,1.2,2,1.4c0.6,0.1,1.2,0.1,1.8-0.2c0.4-0.2,0.8-0.5,1-0.9c0.1-0.2,0.2-0.3,0.4-0.3c0.9,0,1.8,0,2.7,0
		c0.2,0,0.2,0.1,0.2,0.2c-0.1,0.5-0.4,1-0.7,1.4c-0.4,0.6-0.9,1-1.5,1.4c-0.6,0.4-1.3,0.6-2,0.7c-1.1,0.2-2.3,0.2-3.4-0.2
		c-1.1-0.4-2.1-1-2.8-1.9c-0.4-0.6-0.7-1.2-0.8-1.9c-0.3-1.5-0.3-3.1,0.1-4.6c0.3-1.1,1-2.1,1.9-2.8c1.2-0.9,2.5-1.1,3.9-1.1
		c1.1,0,2.1,0.3,3,0.9c0.8,0.5,1.4,1.2,1.8,2.1c0.4,0.7,0.5,1.5,0.6,2.3c0,0.1,0,0.1,0.1,0.2C37.3,25,37.3,25.1,37.3,25.2z" />
                                <path class="st0" d="M37.3,25.5c0,0.1,0,0.2,0,0.3c0,0.1,0,0.2,0,0.3c0,0.4,0.1,0.3-0.3,0.3c-2.7,0-5.3,0-8,0c-0.1,0-0.1,0-0.2,0
		c-0.1,0-0.1,0.1-0.1,0.1c0-0.2,0.1-0.1,0.2-0.1c2.7,0,5.4,0,8.1,0c0.3,0,0.3,0,0.3-0.3c0-0.1,0-0.2,0-0.4
		C37.3,25.8,37.3,25.7,37.3,25.5c0-0.1,0-0.3,0-0.4C37.2,25.3,37.3,25.4,37.3,25.5z" />
                                <path class="st0" d="M19.5,25.1c-0.3-0.1-0.7-0.2-1.1-0.2c-1.3,0-2.5,0-3.8,0c-0.2,0-0.2,0.1-0.2,0.2c0,0.7,0,1.3,0,2
		c0,0.7,0,1.3,0,2c0,0.2,0,0.3,0.2,0.3c0.6,0,1.3,0,1.9,0c0.7,0,1.4,0,2.2,0c0.6-0.1,1.1-0.2,1.4-0.7c0.5-0.6,0.6-1.3,0.5-2
		C20.7,25.8,20.2,25.3,19.5,25.1z" />
                                <path class="st0" d="M14.7,22.1c0.6,0,1.2,0,1.7,0c0.5,0,1,0,1.5,0c0.4,0,0.7,0,1.1-0.1c0.5-0.1,1-0.3,1.2-0.8
		c0.2-0.4,0.2-0.9,0.2-1.3c-0.1-0.6-0.4-1.1-1.1-1.2c-0.4-0.1-0.9-0.2-1.3-0.2c-1.1,0-2.2,0-3.3,0c-0.1,0-0.2,0-0.2,0.2
		c0,1.1,0,2.2,0,3.3C14.5,22.1,14.6,22.1,14.7,22.1z" />
                                <path class="st0" d="M32.7,22.3c-0.6-0.3-1.2-0.3-1.8-0.3c-0.6,0.1-1.1,0.3-1.5,0.8c-0.3,0.4-0.5,0.8-0.6,1.3
		c-0.1,0.3-0.1,0.3,0.3,0.3c0.8,0,1.6,0,2.4,0c0.7,0,1.5,0,2.2,0c0.4,0,0.4,0,0.4-0.4C33.9,23.3,33.5,22.7,32.7,22.3z" />
                            </g>
                        </svg>