<svg class="facebook-menu" version="1.1" id="Layer_1" xmlns="http://www.w3.org/2000/svg" xmlns:xlink="http://www.w3.org/1999/xlink" x="0px" y="0px" viewBox="0 0 48 48" style="enable-background:new 0 0 48 48;" xml:space="preserve">
                            <style type="text/css">
                                .st0 {
                                    fill: #33cc66;
                                }
                                
                                .st1 {
                                    fill: #799DCB;
                                }
                            </style>
                            <path class="st0" d="M24.3,1c-12.7,0-23,10.3-23,23c0,12.7,10.3,23,23,23c12.7,0,23-10.3,23-23C47.3,11.3,37,1,24.3,1z M31,15.4
	l-2.4,0c-1.9,0-2.3,0.9-2.3,2.2v2.9h4.5l-0.6,4.6h-3.9v11.8h-4.7V25.1h-4v-4.6h4v-3.4c0-3.9,2.4-6.1,5.9-6.1c1.7,0,3.1,0.1,3.5,0.2
	V15.4z" />
                            <g id="zNalIV.tif">
                                <g>
                                    <g>
                                        <path class="st0" d="M-76.2-61.9c-12.7,0-23,10.3-23,23c0,12.7,10.3,23,23,23s23-10.3,23-23C-53.2-51.6-63.5-61.9-76.2-61.9z
				 M-64.4-28.9c0,0.2,0,0.5-0.1,0.7c-0.2,0.4-0.5,0.8-1,0.9c-0.1,0.1-0.3,0-0.4,0.1c-6.8,0-13.7,0-20.5,0c-0.2,0-0.4-0.1-0.6-0.2
				c-0.4-0.3-0.7-0.6-0.8-1c0-0.2,0-0.3,0-0.5c0-6.7,0-13.3,0-20c0-0.2,0-0.5,0.1-0.7c0.2-0.4,0.5-0.7,1-0.9c0.1,0,0.3,0,0.4-0.1
				c6.8,0,13.6,0,20.4,0c0,0,0.1,0,0.1,0c0.5,0,0.8,0.2,1.1,0.5c0.1,0.1,0.2,0.3,0.3,0.4c0.1,0.2,0.1,0.5,0.1,0.7
				C-64.4-42.2-64.4-35.6-64.4-28.9z" />
                                    </g>
                                    <path class="st1" d="M-65.9-50.6C-65.9-50.6-65.9-50.6-65.9-50.6c0,0-0.1,0-0.1,0C-66-50.6-66-50.6-65.9-50.6z" />
                                    <path class="st0" d="M-78.8-36.2c0-1.8,0-3.6,0-5.4c0-0.1,0-0.2,0.1-0.2c1,0,2,0,3,0c0.1,0,0.1,0,0.1,0.1c0,0.4,0,0.9,0,1.3
			c0,0,0,0.1,0,0.1c0,0,0.1,0,0.1-0.1c0.3-0.5,0.7-0.9,1.3-1.2c0.6-0.3,1.2-0.5,1.9-0.5c0.6,0,1.3,0.1,1.9,0.3
			c0.9,0.3,1.6,1,1.9,1.9c0.3,0.6,0.4,1.3,0.4,1.9c0,0.6,0,1.1,0,1.7c0,1.9,0,3.7,0,5.6c0,0.1,0,0.1-0.1,0.1c-1.1,0-2.1,0-3.2,0
			c-0.1,0-0.1,0-0.1-0.1c0-1.9,0-3.7,0-5.6c0-0.5,0-0.9-0.1-1.4c-0.1-0.4-0.3-0.7-0.6-1c-0.2-0.2-0.5-0.3-0.8-0.3
			c-0.4,0-0.7,0-1.1,0.1c-0.5,0.2-0.8,0.6-1,1.1c-0.2,0.5-0.2,1-0.2,1.6c0,1.8,0,3.6,0,5.5c0,0.1,0,0.1-0.1,0.1c-1.1,0-2.1,0-3.2,0
			c-0.1,0-0.1,0-0.1-0.1C-78.8-32.6-78.8-34.4-78.8-36.2z" />
                                    <path class="st0" d="M-84.4-36.2c0-1.8,0-3.6,0-5.5c0-0.1,0-0.1,0.1-0.1c1.1,0,2.1,0,3.2,0c0.1,0,0.1,0,0.1,0.1
			c0,3.6,0,7.3,0,10.9c0,0.1,0,0.1-0.1,0.1c-1.1,0-2.1,0-3.2,0c-0.1,0-0.1,0-0.1-0.1C-84.4-32.6-84.4-34.4-84.4-36.2z" />
                                    <path class="st0" d="M-82.7-47.4c1.1,0,2,0.9,2,2c0,1.1-0.9,2-2,2c-1.1,0-2-0.9-2-2C-84.7-46.5-83.8-47.4-82.7-47.4z" />
                                </g>
                            </g>
                            <g>
                                <path class="st0" d="M-25.9-63.5c-12.7,0-23,10.3-23,23c0,12.7,10.3,23,23,23c12.7,0,23-10.3,23-23C-2.9-53.2-13.1-63.5-25.9-63.5z
		 M-13.3-30.7c-0.1,1.4-1.5,2.7-3,2.8c-6.4,0-12.8,0-19.2,0c-1.2-0.1-2-0.7-2.6-1.6c-0.3-0.5-0.4-1-0.4-1.5c0-6.3,0-12.6,0-18.9
		c0.1-0.6,0.2-1.2,0.5-1.7c0.6-0.8,1.3-1.4,2.4-1.5c6.5,0,13,0,19.5,0c1.3,0.1,2.7,1.5,2.8,2.8C-13.3-43.8-13.3-37.3-13.3-30.7z" />
                                <path class="st0" d="M-16.4-42.6c-0.6,0-1.3,0-1.9,0c0.1,0.6,0.3,1.1,0.2,1.6c0,0.5,0,1.1-0.1,1.6c-0.3,2-1.3,3.6-2.8,4.8
		c-1.8,1.4-3.8,1.9-6.1,1.6c-2-0.3-3.6-1.3-4.9-3c-1.5-1.9-1.9-4.1-1.4-6.4c0.1-0.3,0-0.3-0.3-0.3c-0.5,0-1,0-1.6,0
		c-0.3,0-0.4,0.1-0.4,0.4c0,3.5,0,7,0,10.5c0,0.6,0.3,0.9,0.9,0.9c1.6,0,3.1,0,4.7,0c4.3,0,8.7,0,13,0c0.5,0,0.8-0.2,0.8-0.7
		c0-3.6,0-7.2,0-10.8C-16.1-42.6-16.2-42.6-16.4-42.6z" />
                                <path class="st0" d="M-25.8-35.7c2.6,0,4.9-2.1,4.8-4.9c0-2.7-2.2-4.7-4.5-4.8c-3-0.1-5.1,2.2-5.1,4.8
		C-30.6-37.9-28.6-35.7-25.8-35.7z" />
                                <path class="st0" d="M-20.1-45.5c1.1,0,2.1,0,3.2,0c0.5,0,0.7-0.3,0.7-0.7c0-0.6,0-1.1,0-1.7c0-0.5,0-1,0-1.6
		c0-0.6-0.2-0.8-0.8-0.8c-1.1,0-2.1,0-3.2,0c-0.5,0-0.8,0.4-0.8,0.9c0,1,0,2.1,0,3.1C-20.9-45.8-20.6-45.5-20.1-45.5z" />
                            </g>
                            <g>
                                <path class="st0" d="M-87.4-8.8c-12.7,0-23,10.3-23,23c0,12.7,10.3,23,23,23c12.7,0,23-10.3,23-23C-64.4,1.4-74.7-8.8-87.4-8.8z
		 M-83.2,6.6c1,0,2.1,0,3.1,0c1,0,2.1,0,3.1,0c0.2,0,0.2,0.1,0.2,0.2c0,0.4,0,0.8,0,1.3c0,0.1,0,0.2-0.2,0.2c-2.1,0-4.2,0-6.3,0
		c-0.1,0-0.2,0-0.2-0.2c0-0.4,0-0.9,0-1.3C-83.4,6.6-83.3,6.6-83.2,6.6z M-87.9,20.1c-0.5,0.8-1.2,1.5-2.2,1.8
		c-1.1,0.4-2.2,0.5-3.3,0.5c-2.4,0-4.7,0-7.1,0c-0.1,0-0.2,0-0.3,0c0-5.5,0-11,0-16.6c0.1,0,0.2,0,0.3,0c2.5,0,5.1,0,7.6,0
		c0.9,0,1.8,0.1,2.7,0.5c1.1,0.4,1.9,1.2,2.2,2.3c0.3,0.9,0.3,1.8,0.1,2.7c-0.2,0.9-0.7,1.6-1.6,2.1c-0.1,0.1-0.2,0.1-0.3,0.2
		c0.2,0.2,0.5,0.2,0.7,0.3c1.1,0.7,1.7,1.7,1.8,2.9C-87.1,18-87.3,19.1-87.9,20.1z M-74.1,15.4c0,0.1,0,0.3,0,0.4c0,0.1,0,0.2,0,0.3
		s0,0.2,0,0.3c0,0.1,0,0.3,0,0.4c-0.1,0-0.2,0-0.3,0c-2.7,0-5.4,0-8.1,0c-0.1,0-0.2-0.1-0.2,0.1c0,0.5,0.1,1,0.4,1.4
		c0.4,0.8,1.1,1.2,2,1.4c0.6,0.1,1.2,0.1,1.8-0.2c0.4-0.2,0.8-0.5,1-0.9c0.1-0.2,0.2-0.3,0.4-0.3c0.9,0,1.8,0,2.7,0
		c0.2,0,0.2,0.1,0.2,0.2c-0.1,0.5-0.4,1-0.7,1.4c-0.4,0.6-0.9,1-1.5,1.4c-0.6,0.4-1.3,0.6-2,0.7c-1.1,0.2-2.3,0.2-3.4-0.2
		c-1.1-0.4-2.1-1-2.8-1.9c-0.4-0.6-0.7-1.2-0.8-1.9c-0.3-1.5-0.3-3.1,0.1-4.6c0.3-1.1,1-2.1,1.9-2.8c1.2-0.9,2.5-1.1,3.9-1.1
		c1.1,0,2.1,0.3,3,0.9c0.8,0.5,1.4,1.2,1.8,2.1c0.4,0.7,0.5,1.5,0.6,2.3c0,0.1,0,0.1,0.1,0.2C-74.1,15.2-74.1,15.3-74.1,15.4z" />
                                <path class="st0" d="M-74.2,15.8c0,0.1,0,0.2,0,0.3c0,0.1,0,0.2,0,0.3c0,0.4,0.1,0.3-0.3,0.3c-2.7,0-5.3,0-8,0c-0.1,0-0.1,0-0.2,0
		c-0.1,0-0.1,0.1-0.1,0.1c0-0.2,0.1-0.1,0.2-0.1c2.7,0,5.4,0,8.1,0c0.3,0,0.3,0,0.3-0.3c0-0.1,0-0.2,0-0.4
		C-74.2,16-74.2,15.9-74.2,15.8c0-0.1,0-0.3,0-0.4C-74.2,15.5-74.2,15.7-74.2,15.8z" />
                                <path class="st0" d="M-91.9,15.3c-0.3-0.1-0.7-0.2-1.1-0.2c-1.3,0-2.5,0-3.8,0c-0.2,0-0.2,0.1-0.2,0.2c0,0.7,0,1.3,0,2
		c0,0.7,0,1.3,0,2c0,0.2,0,0.3,0.2,0.3c0.6,0,1.3,0,1.9,0c0.7,0,1.4,0,2.2,0c0.6-0.1,1.1-0.2,1.4-0.7c0.5-0.6,0.6-1.3,0.5-2
		C-90.8,16-91.2,15.6-91.9,15.3z" />
                                <path class="st0" d="M-96.7,12.4c0.6,0,1.2,0,1.7,0c0.5,0,1,0,1.5,0c0.4,0,0.7,0,1.1-0.1c0.5-0.1,1-0.3,1.2-0.8
		c0.2-0.4,0.2-0.9,0.2-1.3c-0.1-0.6-0.4-1.1-1.1-1.2c-0.4-0.1-0.9-0.2-1.3-0.2c-1.1,0-2.2,0-3.3,0c-0.1,0-0.2,0-0.2,0.2
		c0,1.1,0,2.2,0,3.3C-96.9,12.4-96.9,12.4-96.7,12.4z" />
                                <path class="st0" d="M-78.7,12.6c-0.6-0.3-1.2-0.3-1.8-0.3c-0.6,0.1-1.1,0.3-1.5,0.8c-0.3,0.4-0.5,0.8-0.6,1.3
		c-0.1,0.3-0.1,0.3,0.3,0.3c0.8,0,1.6,0,2.4,0c0.7,0,1.5,0,2.2,0c0.4,0,0.4,0,0.4-0.4C-77.6,13.6-78,13-78.7,12.6z" />
                            </g>
                        </svg>