<svg class="linkedin-menu" version="1.1" id="Layer_1" xmlns="http://www.w3.org/2000/svg" xmlns:xlink="http://www.w3.org/1999/xlink" x="0px" y="0px" viewBox="0 0 48 48" style="enable-background:new 0 0 48 48;" xml:space="preserve">
                            <style type="text/css">
                                .st0 {
                                    fill: #33cc66;
                                }
                                
                                .st1 {
                                    fill: #799DCB;
                                }
                            </style>
                            <path class="st0" d="M-195.5,9.3c-13.3,0-24,10.7-24,24c0,13.3,10.7,24,24,24c13.3,0,24-10.7,24-24C-171.5,20-182.2,9.3-195.5,9.3z
	 M-188.5,24.3l-2.5,0c-2,0-2.4,0.9-2.4,2.3v3.1h4.7l-0.6,4.8h-4.1v12.3h-4.9V34.5h-4.1v-4.8h4.1v-3.5c0-4.1,2.5-6.3,6.2-6.3
	c1.7,0,3.3,0.1,3.7,0.2V24.3z" />
                            <g id="zNalIV.tif">
                                <g>
                                    <g>
                                        <path class="st0" d="M24,1C11.3,1,1,11.3,1,24c0,12.7,10.3,23,23,23s23-10.3,23-23C47,11.3,36.7,1,24,1z M35.7,34
				c0,0.2,0,0.5-0.1,0.7c-0.2,0.4-0.5,0.8-1,0.9c-0.1,0.1-0.3,0-0.4,0.1c-6.8,0-13.7,0-20.5,0c-0.2,0-0.4-0.1-0.6-0.2
				c-0.4-0.3-0.7-0.6-0.8-1c0-0.2,0-0.3,0-0.5c0-6.7,0-13.3,0-20c0-0.2,0-0.5,0.1-0.7c0.2-0.4,0.5-0.7,1-0.9c0.1,0,0.3,0,0.4-0.1
				c6.8,0,13.6,0,20.4,0c0,0,0.1,0,0.1,0c0.5,0,0.8,0.2,1.1,0.5c0.1,0.1,0.2,0.3,0.3,0.4c0.1,0.2,0.1,0.5,0.1,0.7
				C35.7,20.7,35.7,27.3,35.7,34z" />
                                    </g>
                                    <path class="st1" d="M34.2,12.3C34.2,12.3,34.2,12.3,34.2,12.3c0,0-0.1,0-0.1,0C34.2,12.3,34.2,12.3,34.2,12.3z" />
                                    <path class="st0" d="M21.4,26.6c0-1.8,0-3.6,0-5.4c0-0.1,0-0.2,0.1-0.2c1,0,2,0,3,0c0.1,0,0.1,0,0.1,0.1c0,0.4,0,0.9,0,1.3
			c0,0,0,0.1,0,0.1c0,0,0.1,0,0.1-0.1c0.3-0.5,0.7-0.9,1.3-1.2c0.6-0.3,1.2-0.5,1.9-0.5c0.6,0,1.3,0.1,1.9,0.3
			c0.9,0.3,1.6,1,1.9,1.9c0.3,0.6,0.4,1.3,0.4,1.9c0,0.6,0,1.1,0,1.7c0,1.9,0,3.7,0,5.6c0,0.1,0,0.1-0.1,0.1c-1.1,0-2.1,0-3.2,0
			c-0.1,0-0.1,0-0.1-0.1c0-1.9,0-3.7,0-5.6c0-0.5,0-0.9-0.1-1.4c-0.1-0.4-0.3-0.7-0.6-1c-0.2-0.2-0.5-0.3-0.8-0.3
			c-0.4,0-0.7,0-1.1,0.1c-0.5,0.2-0.8,0.6-1,1.1c-0.2,0.5-0.2,1-0.2,1.6c0,1.8,0,3.6,0,5.5c0,0.1,0,0.1-0.1,0.1c-1.1,0-2.1,0-3.2,0
			c-0.1,0-0.1,0-0.1-0.1C21.4,30.3,21.4,28.5,21.4,26.6z" />
                                    <path class="st0" d="M15.8,26.7c0-1.8,0-3.6,0-5.5c0-0.1,0-0.1,0.1-0.1c1.1,0,2.1,0,3.2,0c0.1,0,0.1,0,0.1,0.1c0,3.6,0,7.3,0,10.9
			c0,0.1,0,0.1-0.1,0.1c-1.1,0-2.1,0-3.2,0c-0.1,0-0.1,0-0.1-0.1C15.8,30.3,15.8,28.5,15.8,26.7z" />
                                    <path class="st0" d="M17.5,15.5c1.1,0,2,0.9,2,2c0,1.1-0.9,2-2,2c-1.1,0-2-0.9-2-2C15.5,16.4,16.4,15.5,17.5,15.5z" />
                                </g>
                            </g>
                            <g>
                                <path class="st0" d="M-140.8,10c-13.3,0-24,10.7-24,24c0,13.3,10.7,24,24,24c13.3,0,24-10.7,24-24C-116.8,20.8-127.6,10-140.8,10z
		 M-127.7,44.3c-0.1,1.4-1.6,2.8-3.1,2.9c-6.7,0-13.3,0-20,0c-1.2-0.1-2.1-0.7-2.7-1.7c-0.3-0.5-0.4-1-0.4-1.6c0-6.6,0-13.2,0-19.7
		c0.1-0.6,0.2-1.2,0.5-1.7c0.6-0.9,1.4-1.4,2.5-1.5c6.8,0,13.6,0,20.4,0c1.4,0.1,2.8,1.5,2.9,2.9C-127.7,30.6-127.7,37.5-127.7,44.3
		z" />
                                <path class="st0" d="M-131,31.9c-0.7,0-1.3,0-2,0c0.1,0.6,0.3,1.1,0.2,1.7c0,0.6,0,1.1-0.1,1.7c-0.3,2.1-1.3,3.7-2.9,5
		c-1.9,1.5-4,2-6.3,1.6c-2.1-0.3-3.8-1.4-5.1-3.1c-1.5-2-1.9-4.3-1.4-6.7c0.1-0.3-0.1-0.3-0.3-0.3c-0.5,0-1.1,0-1.6,0
		c-0.3,0-0.4,0.1-0.4,0.4c0,3.6,0,7.3,0,10.9c0,0.6,0.3,1,1,1c1.6,0,3.3,0,4.9,0c4.5,0,9,0,13.5,0c0.6,0,0.9-0.2,0.9-0.7
		c0-3.8,0-7.5,0-11.3C-130.7,31.9-130.8,31.9-131,31.9z" />
                                <path class="st0" d="M-140.8,39.1c2.7,0,5.1-2.2,5-5.1c0-2.8-2.3-4.9-4.7-5c-3.1-0.1-5.4,2.3-5.3,5
		C-145.8,36.8-143.7,39-140.8,39.1z" />
                                <path class="st0" d="M-134.8,28.9c1.1,0,2.2,0,3.4,0c0.5,0,0.8-0.3,0.8-0.8c0-0.6,0-1.2,0-1.8c0-0.5,0-1.1,0-1.6
		c0-0.6-0.2-0.8-0.8-0.8c-1.1,0-2.2,0-3.3,0c-0.5,0-0.9,0.4-0.9,0.9c0,1.1,0,2.2,0,3.3C-135.7,28.5-135.3,28.9-134.8,28.9z" />
                            </g>
                            <g>
                                <path class="st0" d="M-50.5-11.5c-12.9,0-23.4,10.5-23.4,23.4c0,12.9,10.5,23.4,23.4,23.4c12.9,0,23.4-10.5,23.4-23.4
		C-27.1-1-37.6-11.5-50.5-11.5z M-46.2,4.2c1.1,0,2.1,0,3.2,0c1.1,0,2.1,0,3.2,0c0.2,0,0.2,0.1,0.2,0.2c0,0.4,0,0.9,0,1.3
		c0,0.1,0,0.2-0.2,0.2c-2.2,0-4.3,0-6.5,0c-0.1,0-0.2,0-0.2-0.2c0-0.4,0-0.9,0-1.3C-46.4,4.2-46.3,4.2-46.2,4.2z M-51,18
		c-0.5,0.9-1.3,1.5-2.2,1.9c-1.1,0.4-2.2,0.5-3.4,0.5c-2.4,0-4.8,0-7.2,0c-0.1,0-0.2,0-0.3,0c0-5.6,0-11.3,0-16.9c0.1,0,0.2,0,0.3,0
		c2.6,0,5.1,0,7.7,0c0.9,0,1.9,0.1,2.8,0.5c1.1,0.4,1.9,1.2,2.3,2.3c0.3,0.9,0.3,1.8,0.1,2.7c-0.2,0.9-0.8,1.6-1.6,2.1
		c-0.1,0.1-0.2,0.1-0.3,0.2c0.2,0.2,0.5,0.2,0.7,0.3c1.1,0.7,1.7,1.7,1.8,3C-50.1,15.8-50.4,16.9-51,18z M-37,13.2
		c0,0.1,0,0.3,0,0.4c0,0.1,0,0.2,0,0.3s0,0.2,0,0.3c0,0.1,0,0.3,0,0.4c-0.1,0-0.2,0-0.3,0c-2.8,0-5.5,0-8.3,0
		c-0.1,0-0.2-0.1-0.2,0.1c0,0.5,0.1,1,0.4,1.5c0.4,0.8,1.2,1.3,2.1,1.4c0.6,0.1,1.2,0.1,1.8-0.2c0.4-0.2,0.8-0.5,1-0.9
		c0.1-0.2,0.2-0.3,0.4-0.3c0.9,0,1.8,0,2.7,0c0.2,0,0.2,0.1,0.2,0.2c-0.1,0.5-0.4,1-0.7,1.4c-0.4,0.6-0.9,1.1-1.6,1.4
		c-0.6,0.4-1.3,0.6-2.1,0.7c-1.2,0.2-2.3,0.2-3.4-0.2c-1.1-0.4-2.1-1-2.9-1.9c-0.4-0.6-0.7-1.2-0.9-1.9c-0.4-1.6-0.3-3.1,0.1-4.7
		c0.3-1.2,1-2.1,2-2.8c1.2-0.9,2.6-1.2,4-1.1c1.1,0,2.2,0.3,3.1,0.9c0.8,0.5,1.4,1.3,1.9,2.1c0.4,0.7,0.6,1.5,0.6,2.3
		c0,0.1,0,0.1,0.1,0.2C-37,13-37,13.1-37,13.2z" />
                                <path class="st0" d="M-37,13.6c0,0.1,0,0.2,0,0.3c0,0.1,0,0.2,0,0.3c0,0.4,0.1,0.3-0.3,0.3c-2.7,0-5.4,0-8.2,0c-0.1,0-0.1,0-0.2,0
		c-0.1,0-0.1,0.1-0.1,0.1c0-0.2,0.1-0.1,0.2-0.1c2.7,0,5.5,0,8.2,0c0.3,0,0.3,0,0.3-0.3c0-0.1,0-0.2,0-0.4C-37,13.9-37,13.7-37,13.6
		c0-0.1,0-0.3,0-0.4C-37.1,13.3-37,13.5-37,13.6z" />
                                <path class="st0" d="M-55.1,13.1c-0.3-0.1-0.7-0.2-1.1-0.2c-1.3,0-2.6,0-3.8,0c-0.2,0-0.2,0.1-0.2,0.2c0,0.7,0,1.4,0,2.1
		c0,0.7,0,1.3,0,2c0,0.2,0,0.3,0.3,0.3c0.6,0,1.3,0,1.9,0c0.7,0,1.5,0,2.2,0c0.6-0.1,1.1-0.2,1.5-0.7c0.5-0.6,0.6-1.3,0.5-2.1
		C-53.9,13.9-54.4,13.4-55.1,13.1z" />
                                <path class="st0" d="M-60,10.2c0.6,0,1.2,0,1.8,0c0.5,0,1,0,1.5,0c0.4,0,0.8,0,1.1-0.1c0.5-0.1,1-0.3,1.2-0.8
		c0.2-0.4,0.3-0.9,0.2-1.3c-0.1-0.6-0.4-1.1-1.1-1.3c-0.4-0.1-0.9-0.2-1.4-0.2c-1.1,0-2.2,0-3.4,0c-0.1,0-0.2,0-0.2,0.2
		c0,1.1,0,2.2,0,3.4C-60.2,10.1-60.1,10.2-60,10.2z" />
                                <path class="st0" d="M-41.6,10.3c-0.6-0.3-1.2-0.4-1.9-0.3c-0.6,0.1-1.1,0.4-1.5,0.9c-0.3,0.4-0.5,0.9-0.6,1.3
		c-0.1,0.3-0.1,0.3,0.3,0.3c0.8,0,1.6,0,2.4,0c0.8,0,1.5,0,2.3,0c0.4,0,0.4,0,0.4-0.4C-40.4,11.4-40.8,10.7-41.6,10.3z" />
                            </g>
                        </svg>