<svg version="1.1" id="Layer_1" xmlns="http://www.w3.org/2000/svg" xmlns:xlink="http://www.w3.org/1999/xlink" x="0px" y="0px" width="180px" viewBox="0 0 189 70" style="enable-background:new 0 0 189 70;" xml:space="preserve">
                <style type="text/css">
                    .st0 {
                        fill: #33cc66;
                    }
                    
                    .st3 {
                        fill: #fff;
                        fill-opacity: 0;
                        stroke: #fff;
                        stroke-width: 1;
                        stroke-miterlimit:5 ;
                    }
                    
                </style>
    
    <defs>
        <style>
            .st3 {
                stroke-dasharray: 800;
                stroke-dashoffset: 0;
                -webkit-animation: dash 3s linear forwards;
                -o-animation: dash 3s linear forwards;
                -moz-animation: dash 3s linear forwards;
                animation: dash 3s linear forwards;
            }
            
             @-webkit-keyframes dash{
            0%  {stroke-dashoffset:800;}
		    80%  {stroke-dashoffset:0;fill-opacity:0;}
            100%{stroke-dashoffset:0;fill-opacity:1;}
    }
            }   
        </style>
    </defs>
                <g>
                    <path class="st0" d="M104.6,53.4l-3.8-0.9c-3.7-0.9-4.1-2.8-4.1-4c0-2.7,2.6-4.4,5.4-4.4c3.2,0,5.5,1.9,5.5,4.8c0.7,0,3.2,0,3.9,0
		c0-5.2-4-8.5-9.3-8.5c-4.9,0-9.4,3.3-9.4,8.2c0,2.5,0.9,6,7.1,7.6l3.7,0.9c2.6,0.6,5.2,2.1,4.9,5.2c-0.3,2.2-2.1,4.3-5.9,4.3
		c-3.7,0-6.2-2.6-6.2-5.1c-0.6,0-3.3,0-3.9,0c0,4.5,4.2,8.8,10.1,8.8c5.7,0,9.2-3.4,9.7-7.6C112.9,57.9,110,54.8,104.6,53.4z" >
                    
                    <animateTransform
                     attributeName="transform"
                     attributeType="XML"
                     type="translate"
                     delay="1s"
                     from="0 100 0"
                     to=" 0 0 0"
                     dur="1.5s"
                     
                                      
                    />
                        
                    <animate
                     attributeName="opacity"
                     from="0" to="1" dur="1s"
                     begin="1s"
                     
                                      
                    />
                    </path>
                        
                    
                    <path class="st0" d="M136.2,60.6c0,4.2-2.8,5.7-5.6,5.7c-2.7,0-4.3-1.9-4.3-5.2V50h-3.7h-0.1h-4v-7.4h-3.8V50h-3.5v3.2h3.5v16.4
		h3.8V53.2h4v8.1c0,5.5,2.7,8.7,7.6,8.7c2.1,0,4.9-1,6.1-3.4v2.9h3.8V50h-3.8V60.6z" >
                    
                    <animateTransform
                     attributeName="transform"
                     attributeType="XML"
                     type="translate"
                     delay="1s"
                     from="100 0 0"
                     to=" 0 0 0"
                     dur="2s"
                                      
                    />
                    </path>
                    
                    <path class="st0" d="M157.7,52.9c-1.3-2.2-4-3.4-6.9-3.4c-5.4,0-9.9,4-9.9,10.2c0,6.2,4.5,10.3,9.9,10.3c2.7,0,5.6-1.2,6.9-3.5v3
		h3.8V39.3h-3.8V52.9z M151.2,66.3c-3.5,0-6.4-2.7-6.4-6.6c0-3.9,2.8-6.4,6.4-6.4c3.2,0,6.5,2.2,6.5,6.4
		C157.7,63.9,154.6,66.3,151.2,66.3z" >
                    
                    <animateTransform
                     attributeName="transform"
                     attributeType="XML"
                     type="translate"
                     delay="1s"
                     from="100 0 0"
                     to=" 0 0 0"
                     dur="2.5s"
                                      
                    />
                    </path>
                    
                    <path class="st0" d="M165.6,40.3c-1.4,0-2.7,1.1-2.7,2.5c0,1.4,1.2,2.5,2.7,2.5c1.5,0,2.7-1.1,2.7-2.5
		C168.3,41.3,167.1,40.3,165.6,40.3z" >
                    
                    <animateTransform
                     attributeName="transform"
                     attributeType="XML"
                     type="translate"
                     delay="1s"
                     from="100 0 0"
                     to=" 0 0 0"
                     dur="3s"
                                      
                    />
                    </path>
                    
                    
                    <rect x="163.8" y="50" class="st0" width="3.8" height="19.7" >
                    
                    <animateTransform
                     attributeName="transform"
                     attributeType="XML"
                     type="translate"
                     delay="1s"
                     from="100 0 0"
                     to=" 0 0 0"
                     dur="3s"
                                      
                    />
                    </rect>
                    <path class="st0" d="M178.7,49.6c-5.6,0-10.3,4-10.3,10.2c0,6.2,4.7,10.3,10.3,10.3c5.6,0,10.3-4.1,10.3-10.3
		C189,53.5,184.3,49.6,178.7,49.6z M178.7,66.4c-3.5,0-6.5-2.6-6.5-6.6c0-4,2.9-6.4,6.5-6.4c3.5,0,6.5,2.5,6.5,6.4
		C185.2,63.7,182.2,66.4,178.7,66.4z" >
                    
                    <animateTransform
                     attributeName="transform"
                     attributeType="XML"
                     type="translate"
                     delay="1s"
                     from="100 0 0"
                     to=" 0 0 0"
                     dur="3.5s"
                                      
                    />
                    </path>
                    
                    <path class="st3" d="M66.2,56.2V13.4h12.5c11.1,0,16.7,10,16.7,21.5c0,2.2,0.2,2.3-0.2,4.4h15c0.3-2.1,0-2.1,0-4.4
		c0-19.8-11.4-35-31.4-35H51.5v44.1C50,39.3,46.1,34.2,39,32.4c7.2-2.7,9.5-8.5,9.5-13C48.5,7.5,40.4,0,27.9,0H0v39.7h14.9h9h4.9
		c5.3,0,7.8,4.3,7.8,8.3c0,4.1-2.5,8.6-7.5,8.6h-5.2v13h6c11.6,0,19.3-6.9,21.6-15.9v15.9h27.3c4,0,8.6-0.6,11.9-1.7V51.8
		c-2.7,2.7-7.3,4.4-11.9,4.4H66.2z M26.5,27.5H14.9V13h11.5c4.3,0,6.6,2.9,6.6,7.3C32.9,24.5,30.3,27.5,26.5,27.5z" >
                    <animate
                     attributeName="opacity"
                     from="0" to="1" dur="2s"
                     delay="1s"
                     
                                      
                    />
                    </path>
                        
                </g>
            </svg>